<?xml version="1.0" encoding="UTF-8" standalone="no"?>
<svg
   viewBox="43.702 38.769 396.268 67.725"
   version="1.1"
   id="svg9"
   sodipodi:docname="header.svg"
   xml:space="preserve"
   inkscape:version="1.3.2 (091e20e, 2023-11-25, custom)"
   xmlns:inkscape="http://www.inkscape.org/namespaces/inkscape"
   xmlns:sodipodi="http://sodipodi.sourceforge.net/DTD/sodipodi-0.dtd"
   xmlns:xlink="http://www.w3.org/1999/xlink"
   xmlns="http://www.w3.org/2000/svg"
   xmlns:svg="http://www.w3.org/2000/svg"><defs
     id="defs9"><linearGradient
       id="linearGradient2"
       inkscape:collect="always"><stop
         style="stop-color:#e9e9e9;stop-opacity:1;"
         offset="0"
         id="stop2" /><stop
         style="stop-color:#ffffff;stop-opacity:1;"
         offset="0.18810512"
         id="stop3" /></linearGradient><linearGradient
       id="swatch19"><stop
         style="stop-color:#e2b751;stop-opacity:1;"
         offset="0"
         id="stop19" /></linearGradient><linearGradient
       inkscape:collect="always"
       xlink:href="#linearGradient20"
       id="linearGradient1"
       x1="97.990875"
       y1="15.091859"
       x2="98.026619"
       y2="207.42491"
       gradientUnits="userSpaceOnUse"
       spreadMethod="reflect" /><linearGradient
       id="linearGradient20"
       inkscape:collect="always"><stop
         style="stop-color:#e1b651;stop-opacity:1;"
         offset="0.14088918"
         id="stop22" /><stop
         style="stop-color:#e1b651;stop-opacity:1;"
         offset="0.4874472"
         id="stop23" /><stop
         style="stop-color:#d59315;stop-opacity:1;"
         offset="0.8738929"
         id="stop21" /></linearGradient><linearGradient
       inkscape:collect="always"
       xlink:href="#linearGradient5"
       id="linearGradient6"
       x1="69.916901"
       y1="14.929873"
       x2="68.086891"
       y2="207.61647"
       gradientUnits="userSpaceOnUse" /><linearGradient
       id="linearGradient5"
       inkscape:collect="always"><stop
         style="stop-color:#e1b551;stop-opacity:1;"
         offset="0"
         id="stop5" /><stop
         style="stop-color:#e1b551;stop-opacity:1;"
         offset="0.5"
         id="stop8" /><stop
         style="stop-color:#d69315;stop-opacity:1;"
         offset="1"
         id="stop6" /></linearGradient><linearGradient
       inkscape:collect="always"
       xlink:href="#linearGradient35"
       id="linearGradient36"
       x1="12.017689"
       y1="21.642014"
       x2="12.004992"
       y2="2.7962289"
       gradientUnits="userSpaceOnUse" /><linearGradient
       id="linearGradient35"
       inkscape:collect="always"><stop
         style="stop-color:#e8e8e8;stop-opacity:1;"
         offset="0.06155512"
         id="stop35" /><stop
         style="stop-color:#ffffff;stop-opacity:1;"
         offset="0.35557851"
         id="stop36" /></linearGradient><linearGradient
       inkscape:collect="always"
       xlink:href="#linearGradient2"
       id="linearGradient3"
       x1="237.16577"
       y1="95.875618"
       x2="237.07547"
       y2="44.221046"
       gradientUnits="userSpaceOnUse" /></defs><sodipodi:namedview
     id="namedview9"
     pagecolor="#ffffff"
     bordercolor="#000000"
     borderopacity="0.25"
     inkscape:showpageshadow="2"
     inkscape:pageopacity="0.0"
     inkscape:pagecheckerboard="0"
     inkscape:deskcolor="#d1d1d1"
     inkscape:zoom="3.1758809"
     inkscape:cx="192.85988"
     inkscape:cy="78.875754"
     inkscape:window-width="2364"
     inkscape:window-height="1237"
     inkscape:window-x="573"
     inkscape:window-y="88"
     inkscape:window-maximized="0"
     inkscape:current-layer="svg9" /><g
     id="g9"
     transform="matrix(0.32296316,0,0,0.32296316,44.812603,37.670519)"><path
       d="M 104.38291,116.92144 C 76.261315,88.77998 68.714119,48.131317 81.168675,12.9475 67.562454,17.760906 54.699829,25.289297 43.827377,36.16175 c -39.0334651,39.032575 -39.0334651,102.30487 0,141.31068 39.013779,39.01474 102.260123,39.03442 141.292713,0 10.91009,-10.8716 18.4195,-23.73517 23.21519,-37.34032 -35.16504,12.45338 -75.83336,4.90639 -103.95489,-23.21345 z"
       fill="#a2a2a2"
       stroke="#2c2c2c"
       stroke-width=".997"
       id="path1-3"
       style="mix-blend-mode:normal;fill:url(#linearGradient1);fill-opacity:1;stroke:url(#linearGradient6);stroke-width:1;stroke-dasharray:none;stroke-dashoffset:0;stroke-opacity:1;image-rendering:crisp-edges" /><g
       style="fill:#f1f1f1;fill-opacity:1;stroke:#404040;stroke-width:0.19559161;stroke-linecap:round;stroke-linejoin:round;stroke-dasharray:none;stroke-opacity:1"
       id="g29"
       transform="matrix(4.8900466,0,0,5.3466977,54.993778,42.576074)"><path
         d="M 14.412312,2.7348991 H 6.3990404 A 2.0033179,1.8770067 0 0 0 4.3957225,4.6119058 V 19.62796 a 2.0033179,1.8770067 0 0 0 2.0033179,1.877007 H 18.418948 A 2.0033179,1.8770067 0 0 0 20.422266,19.62796 V 8.3659192 Z"
         id="path1-6"
         style="fill:url(#linearGradient36);fill-opacity:1;stroke:#404040;stroke-width:0.19559161;stroke-dasharray:none;stroke-opacity:1" /><polyline
         points="14 2 14 8 20 8"
         id="polyline1"
         style="fill:#d9d9d9;fill-opacity:1;stroke:#404040;stroke-width:0.19559161;stroke-dasharray:none;stroke-opacity:1"
         transform="translate(0.40899406,0.74812534)" /><g
         style="fill:none;stroke:#404040;stroke-width:0.35113376;stroke-linecap:round;stroke-linejoin:round;stroke-dasharray:none;stroke-opacity:1"
         id="g2"
         transform="matrix(0.58492799,0,0,0.53046028,5.3227533,8.4712477)"
         inkscape:label="x"><rect
           x="3"
           y="3"
           width="18"
           height="18"
           rx="0"
           id="rect2"
           style="stroke:#404040;stroke-width:0.35113376;stroke-linejoin:round;stroke-dasharray:none;stroke-opacity:1"
           inkscape:label="r" /><line
           x1="21"
           y1="9"
           x2="3"
           y2="9"
           id="line2-0"
           style="stroke:#404040;stroke-width:0.35113376;stroke-linejoin:round;stroke-dasharray:none;stroke-opacity:1"
           inkscape:label="z" /><line
           x1="21"
           y1="15"
           x2="3"
           y2="15"
           id="line3"
           style="stroke:#404040;stroke-width:0.35113376;stroke-linejoin:round;stroke-dasharray:none;stroke-opacity:1"
           inkscape:label="y" /></g></g></g><path
     style="font-weight:bold;font-size:72px;font-family:'PT Sans';-inkscape-font-specification:'PT Sans Bold';fill:url(#linearGradient3);stroke:#404040;stroke-width:0.323;font-variation-settings:normal;opacity:1;fill-opacity:1;stroke-linecap:round;stroke-linejoin:round;stroke-miterlimit:4;stroke-dasharray:none;stroke-dashoffset:0;stroke-opacity:1;stop-color:#000000;stop-opacity:1"
     d="m 169.8682,91.203034 q -2.16,1.728 -5.904,2.952 -3.672,1.152 -7.848,1.152 -8.712,0 -12.744,-5.04 -4.032,-5.112 -4.032,-13.968 0,-9.504 4.536,-14.256 4.536,-4.752 12.744,-4.752 2.736,0 5.328,0.72 2.592,0.72 4.608,2.376 2.016,1.656 3.24,4.464 1.224,2.808 1.224,6.984 0,1.512 -0.216,3.24 -0.144,1.728 -0.504,3.6 h -21.6 q 0.216,4.536 2.304,6.84 2.16,2.304 6.912,2.304 2.952,0 5.256,-0.864 2.376,-0.936 3.6,-1.872 z m -13.392,-26.424 q -3.672,0 -5.472,2.232 -1.728,2.16 -2.088,5.832 h 13.392 q 0.288,-3.888 -1.224,-5.976 -1.44,-2.088 -4.608,-2.088 z m 19.08002,11.52 q 0,-9.144 4.464,-14.04 4.464,-4.968 12.528,-4.968 4.32,0 7.488,1.368 3.168,1.368 5.256,3.888 2.088,2.448 3.096,5.976 1.08,3.528 1.08,7.776 0,9.144 -4.464,14.112 -4.392,4.896 -12.456,4.896 -4.32,0 -7.488,-1.368 -3.168,-1.368 -5.328,-3.816 -2.088,-2.52 -3.168,-6.048 -1.008,-3.528 -1.008,-7.776 z m 9.648,0 q 0,2.376 0.432,4.392 0.432,2.016 1.296,3.528 0.864,1.512 2.232,2.376 1.44,0.792 3.384,0.792 3.672,0 5.472,-2.664 1.8,-2.664 1.8,-8.424 0,-4.968 -1.656,-7.992 -1.656,-3.096 -5.616,-3.096 -3.456,0 -5.4,2.592 -1.944,2.592 -1.944,8.496 z m 61.34405,5.328 q 0,3.024 0.072,6.048 0.072,3.024 0.648,6.696 h -6.696 l -1.296,-4.68 h -0.288 q -1.44,2.52 -4.176,4.104 -2.664,1.512 -6.336,1.512 -6.768,0 -10.512,-4.464 -3.744,-4.464 -3.744,-13.968 0,-9.216 4.176,-14.328 4.176,-5.112 12.24,-5.112 2.232,0 3.672,0.288 1.44,0.216 2.88,0.792 v -14.616 h 9.36 z m -15.912,5.76 q 2.736,0 4.32,-1.296 1.584,-1.368 2.232,-3.888 v -15.264 q -1.008,-0.792 -2.232,-1.152 -1.224,-0.432 -3.168,-0.432 -3.96,0 -5.976,2.664 -1.944,2.664 -1.944,9.144 0,4.608 1.584,7.416 1.656,2.808 5.184,2.808 z m 23.90397,-27 q 2.88,-1.296 6.84,-2.016 3.96,-0.792 8.28,-0.792 3.744,0 6.264,0.936 2.52,0.864 3.96,2.52 1.512,1.656 2.088,3.96 0.648,2.304 0.648,5.184 0,3.168 -0.216,6.408 -0.216,3.168 -0.288,6.264 0,3.096 0.216,6.048 0.216,2.88 1.08,5.472 h -7.632 l -1.512,-4.968 h -0.36 q -1.44,2.232 -4.032,3.888 -2.52,1.584 -6.552,1.584 -2.52,0 -4.536,-0.72 -2.016,-0.792 -3.456,-2.16 -1.44,-1.44 -2.232,-3.312 -0.792,-1.944 -0.792,-4.32 0,-3.312 1.44,-5.544 1.512,-2.304 4.248,-3.672 2.808,-1.44 6.624,-1.944 3.888,-0.576 8.64,-0.36 0.504,-4.032 -0.576,-5.76 -1.08,-1.8 -4.824,-1.8 -2.808,0 -5.976,0.576 -3.096,0.576 -5.112,1.512 z m 11.88,26.784 q 2.808,0 4.464,-1.224 1.656,-1.296 2.448,-2.736 v -4.68 q -2.232,-0.216 -4.32,-0.072 -2.016,0.144 -3.6,0.648 -1.584,0.504 -2.52,1.44 -0.936,0.936 -0.936,2.376 0,2.016 1.152,3.168 1.224,1.08 3.312,1.08 z m 20.30402,-28.872 h 4.968 v -6.768 l 9.36,-2.664 v 9.432 h 8.784 v 7.92 h -8.784 v 13.824 q 0,3.744 0.72,5.4 0.792,1.584 2.88,1.584 1.44,0 2.448,-0.288 1.08,-0.288 2.376,-0.864 l 1.656,7.2 q -1.944,0.936 -4.536,1.584 -2.592,0.648 -5.256,0.648 -4.968,0 -7.344,-2.52 -2.304,-2.592 -2.304,-8.424 v -18.144 h -4.968 z m 28.65606,2.088 q 2.88,-1.296 6.84,-2.016 3.96,-0.792 8.28,-0.792 3.744,0 6.264,0.936 2.52,0.864 3.96,2.52 1.512,1.656 2.088,3.96 0.648,2.304 0.648,5.184 0,3.168 -0.216,6.408 -0.216,3.168 -0.288,6.264 0,3.096 0.216,6.048 0.216,2.88 1.08,5.472 h -7.632 l -1.512,-4.968 h -0.36 q -1.44,2.232 -4.032,3.888 -2.52,1.584 -6.552,1.584 -2.52,0 -4.536,-0.72 -2.016,-0.792 -3.456,-2.16 -1.44,-1.44 -2.232,-3.312 -0.792,-1.944 -0.792,-4.32 0,-3.312 1.44,-5.544 1.512,-2.304 4.248,-3.672 2.808,-1.44 6.624,-1.944 3.888,-0.576 8.64,-0.36 0.504,-4.032 -0.576,-5.76 -1.08,-1.8 -4.824,-1.8 -2.808,0 -5.976,0.576 -3.096,0.576 -5.112,1.512 z m 11.88,26.784 q 2.808,0 4.464,-1.224 1.656,-1.296 2.448,-2.736 v -4.68 q -2.232,-0.216 -4.32,-0.072 -2.016,0.144 -3.6,0.648 -1.584,0.504 -2.52,1.44 -0.936,0.936 -0.936,2.376 0,2.016 1.152,3.168 1.224,1.08 3.312,1.08 z"
     id="text9"
     aria-label="eodata" /></svg>
